<svg xmlns="http://www.w3.org/2000/svg" style="display: none;">

	<symbol id="icon-meowl" viewBox="0 0 295 300">
  <defs>
    <clipPath id="clip-1">
      <rect x="0" y="0" transform="scale(0.14646,0.14648)" width="2011" height="2048" fill="none"/>
    </clipPath>
  </defs>
  <g clip-path="url(#clip-1)" fill="none" fill-rule="nonzero" stroke="none" stroke-width="1" stroke-linecap="butt" stroke-linejoin="miter" stroke-miterlimit="10" style="mix-blend-mode: normal">
    <path d="M99.4497,130.33755c-6.94332,-8.01006 -11.93699,-16.06582 -13.1482,-26.83975c-0.79864,-7.10259 0.01098,-15.49116 2.65691,-22.18916c2.05057,-5.19097 1.57312,-7.05059 1.56638,-12.56147l-0.01201,-14.94023l0.02373,-14.39414c-0.01582,-2.78716 -0.1075,-5.54678 0.06093,-8.33364c0.12815,-2.98506 3.58985,-5.19697 6.17398,-3.3854c3.15941,2.21499 6.33142,4.93667 9.3268,7.37871c5.78352,4.66055 11.52295,9.37559 17.21742,14.14438c18.14626,-5.32134 31.11359,-5.19229 49.16611,0.0605c2.66262,-2.39077 25.26563,-21.4125 27.10808,-21.98525c1.11016,-0.34497 2.47076,-0.23921 3.47401,0.37061c1.1043,0.6709 1.7619,1.86328 1.99477,3.10825c0.46281,2.45742 0.10106,7.84307 0.09959,10.60415l0.00586,23.37231c0,3.88008 -0.05419,7.93843 0.06151,11.81411c0.04687,1.54028 1.26687,3.82427 1.80291,5.35312c0.47892,1.36113 0.80406,2.60376 1.17607,3.99404c2.74757,10.25522 2.12365,20.47222 -2.25254,30.18398c-0.99446,2.204 -2.1134,4.07549 -3.3378,6.15747c1.05597,1.64517 3.18548,3.87993 3.85919,5.52642c10.9068,15.41265 15.63302,37.23809 16.7095,55.78154c0.25923,4.48096 0.19479,9.20801 0.19479,13.71387l0.00146,18.56543v45.05127c-3.90459,-1.80029 -7.569,-4.02393 -11.14845,-5.67334c-0.10106,1.35205 2.33309,6.61963 2.8413,8.38916c0.53165,2.05957 2.39167,6.40283 3.22795,8.62646c-16.00796,1.40625 -32.53731,-5.18701 -41.51085,-18.87158c-1.92154,1.74316 -3.619,3.59033 -5.34575,5.521c1.9728,1.4502 3.33048,2.58691 4.70133,4.6875c0.9886,1.51465 2.12658,4.68896 1.66963,6.43652c-0.22115,0.87451 -0.79967,1.61426 -1.59347,2.04199c-0.83628,0.45557 -1.87614,0.51416 -2.76807,0.19043c-2.21153,-0.71045 -2.0885,-2.95459 -2.89549,-4.62891c-3.06685,-6.35889 -14.49357,-6.55225 -18.08768,-0.62549c-1.11162,1.83398 -0.97395,4.36523 -3.23528,5.2207c-0.88315,0.33545 -1.6916,0.4292 -2.585,0.01465c-0.83818,-0.39844 -1.48568,-1.11182 -1.80159,-1.98486c-0.65306,-1.76807 0.2235,-4.06348 1.03737,-5.67041c1.89342,-3.73975 5.49485,-6.22119 9.3804,-7.53809c-0.28267,-1.62012 -0.70007,-4.99805 -0.78795,-6.60205c-3.00094,-0.95654 -5.99603,-1.93066 -8.98613,-2.92383c-0.16828,2.76416 -0.69773,6.25049 -1.04484,9.04834c-2.72106,2.58105 -3.53215,3.44971 -4.99938,6.93604c-3.68535,-0.85547 -6.47158,-1.2583 -10.21976,0.0249c-1.96694,0.67969 -4.3532,2.42285 -5.13324,4.40332c-0.83657,2.12256 -0.4694,3.69434 -3.14916,4.44141c-2.00649,0.55957 -3.70102,-0.76465 -4.02498,-2.74658c-0.36058,-2.20313 0.91947,-4.78418 2.09583,-6.58154c3.0481,-4.35645 7.1781,-5.95459 12.21321,-6.9082c-1.83528,-5.50049 -4.08562,-10.85303 -6.73169,-16.01074c-0.81871,-1.60986 -1.8943,-3.65479 -2.89623,-5.13721c-0.99255,-1.33301 -2.48248,-2.41846 -3.72108,-3.52148c-11.09661,-9.87598 -20.93908,-22.10596 -27.08889,-35.67627c-6.85779,-15.20068 -8.64649,-33.39697 -0.9656,-48.65186c1.97851,-3.92959 4.12575,-6.50991 6.7894,-9.83511c0.75939,-0.94805 2.30292,-5.52686 2.83471,-6.946z" fill="#a07043"/>
    <path d="M108.39541,137.87314c0.82544,0.38276 3.12309,1.92202 4.04959,2.48672c1.86193,1.11987 3.7867,2.13164 5.76492,3.03018c13.16329,5.95957 27.81753,7.80967 42.04835,5.30918c17.68198,-3.21943 32.0496,-11.53301 42.35592,-26.44907c1.05597,1.64517 3.18548,3.87993 3.85919,5.52642c10.9068,15.41265 15.63302,37.23809 16.7095,55.78154c0.25923,4.48096 0.19479,9.20801 0.19479,13.71387l0.00146,18.56543v45.05127c-3.90459,-1.80029 -7.569,-4.02393 -11.14845,-5.67334c-0.10106,1.35205 2.33309,6.61963 2.8413,8.38916c-13.57528,-5.92529 -23.47297,-14.36865 -33.74413,-24.95068c-1.73847,1.94385 -3.50623,3.85986 -5.30621,5.74658c-0.77916,-1.91895 -2.5645,-4.41211 -3.52527,-6.32373c-1.30348,-2.59131 -2.66116,-5.37744 -3.78157,-8.04492c-6.61408,-15.96973 -9.78346,-33.15527 -9.30453,-50.43457c0.05858,-2.90039 0.27095,-8.00977 0.67518,-10.85889c-3.82404,-1.14551 -7.44304,-2.22949 -11.10451,-3.83789c-12.86934,-5.65576 -25.23004,-13.47803 -35.93033,-22.5936c-1.11499,-0.94995 -4.18169,-3.27466 -4.6552,-4.43364z" fill="#a07043"/>
    <path d="M108.39541,137.87314c0.82544,0.38276 3.12309,1.92202 4.04959,2.48672c1.86193,1.11987 3.7867,2.13164 5.76492,3.03018c13.16329,5.95957 27.81753,7.80967 42.04835,5.30918c17.68198,-3.21943 32.0496,-11.53301 42.35592,-26.44907c1.05597,1.64517 3.18548,3.87993 3.85919,5.52642c-1.56565,1.97783 -2.89549,3.91553 -4.65446,5.76313c-11.24219,11.81309 -23.35434,17.79624 -38.98297,21.25327c-4.00858,24.06738 3.14887,51.39111 17.12837,71.28809c7.14573,10.17041 15.27274,17.95166 25.4941,24.97705c2.18224,1.5 4.81264,2.77002 6.77226,4.15723c-0.10106,1.35205 2.33309,6.61963 2.8413,8.38916c-13.57528,-5.92529 -23.47297,-14.36865 -33.74413,-24.95068c-1.73847,1.94385 -3.50623,3.85986 -5.30621,5.74658c-0.77916,-1.91895 -2.5645,-4.41211 -3.52527,-6.32373c-1.30348,-2.59131 -2.66116,-5.37744 -3.78157,-8.04492c-6.61408,-15.96973 -9.78346,-33.15527 -9.30453,-50.43457c0.05858,-2.90039 0.27095,-8.00977 0.67518,-10.85889c-3.82404,-1.14551 -7.44304,-2.22949 -11.10451,-3.83789c-12.86934,-5.65576 -25.23004,-13.47803 -35.93033,-22.5936c-1.11499,-0.94995 -4.18169,-3.27466 -4.6552,-4.43364z" fill="#ddcaa9"/>
    <path d="M104.87337,135.27773c1.20419,0.95625 2.26792,1.71797 3.52204,2.59541c0.4735,1.15898 3.5402,3.48369 4.6552,4.43364c10.70029,9.11558 23.06098,16.93784 35.93033,22.5936c3.66147,1.6084 7.28047,2.69238 11.10451,3.83789c-0.40423,2.84912 -0.61659,7.9585 -0.67518,10.85889c-0.47892,17.2793 2.69045,34.46484 9.30453,50.43457c1.12041,2.66748 2.47808,5.45361 3.78157,8.04492c0.96077,1.91162 2.7461,4.40479 3.52527,6.32373c-3.81525,3.91553 -7.60708,7.85449 -11.37693,11.81396l-2.62015,-0.17725c-0.47746,-3.72949 -0.9886,-7.45459 -1.53342,-11.17529c-4.60174,-1.17627 -9.13171,-2.61621 -13.56795,-4.30957c-19.06558,-7.42969 -34.95916,-20.04199 -43.22867,-39.09521c-8.13242,-18.73682 -7.64179,-40.61426 -1.23904,-59.7624c0.7093,-2.12124 1.60036,-4.32495 2.41789,-6.41689z" fill="#fefdfb"/>
    <path d="M147.42115,63.00132c6.25965,-0.17285 9.72487,13.24233 10.86579,18.05376c1.60812,-1.67534 3.01998,-3.35083 4.99571,-4.60327c3.96025,-2.54575 8.76996,-3.40898 13.36731,-2.39883c4.66325,1.04575 8.71138,3.9189 11.23779,7.97578c5.68846,9.25195 2.33748,19.7833 -6.73711,25.26079c4.90198,0.99067 15.11017,2.70293 15.63302,9.26162c0.24312,3.02856 -2.80322,5.99883 -4.74966,8.11099c-11.45455,12.43433 -26.83274,17.73838 -43.46608,18.27686c-11.54126,0.16406 -22.91086,-2.80181 -32.90126,-8.58267c-4.775,-2.80107 -14.71297,-10.44727 -16.47604,-16.08398c-0.42136,-1.34722 -0.01948,-3.15146 0.75441,-4.38135c2.76339,-4.39131 9.87353,-5.55249 14.62392,-6.56191c-5.75071,-3.66665 -9.76866,-9.14004 -9.54297,-16.21392c0.16272,-4.81011 2.22046,-9.36064 5.72449,-12.65933c3.47767,-3.25737 8.11426,-4.98662 12.8752,-4.80205c6.18789,0.25649 9.90897,3.12349 13.86966,7.43994c1.17768,-5.29937 4.1278,-16.40361 9.92581,-18.09243z" fill="#fefdfb"/>
    <path d="M121.96307,79.13262c6.8222,-0.49907 12.75159,4.64063 13.22758,11.46577c0.47585,6.82515 -4.68288,12.73828 -11.5083,13.19136c-6.79306,0.45088 -12.67104,-4.679 -13.14469,-11.47163c-0.47365,-6.79277 4.63542,-12.68892 11.42541,-13.1855z" fill="#77522f"/>
    <path d="M117.93575,82.55713c1.29909,-0.33647 2.67859,0.05112 3.61256,1.01484c0.93382,0.96372 1.278,2.35503 0.90116,3.64307c-0.37684,1.28804 -1.41655,2.27432 -2.72252,2.58252c-1.98906,0.46948 -3.98529,-0.74985 -4.47622,-2.73413c-0.49078,-1.98413 0.70666,-3.9939 2.68503,-4.5063z" fill="#fefdfb"/>
    <path d="M172.11705,79.15239c6.80155,-0.38086 12.62329,4.82446 13.00555,11.62676c0.38079,6.80244 -4.82289,12.62651 -11.62298,13.00884c-6.80302,0.38262 -12.62622,-4.82314 -13.00848,-11.62661c-0.38226,-6.80361 4.82436,-12.62812 11.62591,-13.00898z" fill="#77522f"/>
    <path d="M168.40871,82.41401c2.06654,-0.15015 3.86212,1.4061 4.00858,3.47358c0.14646,2.06748 -1.41186,3.86133 -3.47986,4.004c-2.06214,0.14224 -3.8504,-1.41226 -3.9954,-3.47446c-0.14646,-2.06221 1.40454,-3.85327 3.46668,-4.00312z" fill="#fefdfb"/>
    <path d="M142.57351,108.89736c2.49595,-0.0728 10.56686,-0.37515 12.57335,0.46216c0.48771,0.20288 1.07208,0.52295 1.22147,1.07197c0.50089,1.83823 -4.68669,4.80337 -5.66357,7.21582c-0.37933,0.93428 -0.36761,1.90825 -0.0454,2.85718c1.43383,4.23369 7.11497,4.45181 7.83702,6.56704c0.10252,0.30044 0.0908,0.5666 -0.04247,0.85415c-0.19625,0.41982 -0.66346,0.78735 -1.09405,0.93677c-1.54368,0.53599 -4.73062,-1.4417 -5.99749,-2.16416c-1.02961,-0.57349 -2.36092,-1.53164 -3.36416,-2.21045c-1.91129,0.89751 -8.01496,5.76826 -10.17025,4.05967c-2.47574,-1.96289 2.35184,-3.46187 3.62515,-4.10522c2.85873,-1.44419 3.88731,-3.49966 3.81774,-6.70107c-0.87407,-1.61851 -2.36839,-2.86113 -3.72562,-4.07739c-0.92577,-0.82969 -2.84042,-2.32339 -1.85139,-3.74663c0.54497,-0.78428 1.99726,-0.94746 2.87968,-1.01982z" fill="#a07043"/>
  </g>
</symbol>

</svg>
